<svg id="visual" viewBox="0 0 1920 1080" width="1920" height="1080" xmlns="http://www.w3.org/2000/svg" xmlns:xlink="http://www.w3.org/1999/xlink" version="1.1"><rect x="0" y="0" width="1920" height="1080" fill="#000"></rect><path d="M1175 1080L1182.8 1035C1190.7 990 1206.3 900 1188.2 810C1170 720 1118 630 1141.2 540C1164.3 450 1262.7 360 1288.2 270C1313.7 180 1266.3 90 1242.7 45L1219 0L1920 0L1920 45C1920 90 1920 180 1920 270C1920 360 1920 450 1920 540C1920 630 1920 720 1920 810C1920 900 1920 990 1920 1035L1920 1080Z" fill="#141c17"></path><path d="M1266 1080L1296.7 1035C1327.3 990 1388.7 900 1402.7 810C1416.7 720 1383.3 630 1349.7 540C1316 450 1282 360 1280.5 270C1279 180 1310 90 1325.5 45L1341 0L1920 0L1920 45C1920 90 1920 180 1920 270C1920 360 1920 450 1920 540C1920 630 1920 720 1920 810C1920 900 1920 990 1920 1035L1920 1080Z" fill="#203126"></path><path d="M1324 1080L1334.7 1035C1345.3 990 1366.7 900 1396.8 810C1427 720 1466 630 1483.2 540C1500.3 450 1495.7 360 1493.3 270C1491 180 1491 90 1491 45L1491 0L1920 0L1920 45C1920 90 1920 180 1920 270C1920 360 1920 450 1920 540C1920 630 1920 720 1920 810C1920 900 1920 990 1920 1035L1920 1080Z" fill="#2c4737"></path><path d="M1511 1080L1508 1035C1505 990 1499 900 1498.3 810C1497.7 720 1502.3 630 1484 540C1465.7 450 1424.3 360 1404.5 270C1384.7 180 1386.3 90 1387.2 45L1388 0L1920 0L1920 45C1920 90 1920 180 1920 270C1920 360 1920 450 1920 540C1920 630 1920 720 1920 810C1920 900 1920 990 1920 1035L1920 1080Z" fill="#395e48"></path><path d="M1461 1080L1496.8 1035C1532.7 990 1604.3 900 1615.8 810C1627.3 720 1578.7 630 1552.5 540C1526.3 450 1522.7 360 1543 270C1563.3 180 1607.7 90 1629.8 45L1652 0L1920 0L1920 45C1920 90 1920 180 1920 270C1920 360 1920 450 1920 540C1920 630 1920 720 1920 810C1920 900 1920 990 1920 1035L1920 1080Z" fill="#46765a"></path><path d="M1670 1080L1667.5 1035C1665 990 1660 900 1662.8 810C1665.7 720 1676.3 630 1689.8 540C1703.3 450 1719.7 360 1732.8 270C1746 180 1756 90 1761 45L1766 0L1920 0L1920 45C1920 90 1920 180 1920 270C1920 360 1920 450 1920 540C1920 630 1920 720 1920 810C1920 900 1920 990 1920 1035L1920 1080Z" fill="#548f6c"></path><path d="M1806 1080L1797.8 1035C1789.7 990 1773.3 900 1759.3 810C1745.3 720 1733.7 630 1729.8 540C1726 450 1730 360 1740 270C1750 180 1766 90 1774 45L1782 0L1920 0L1920 45C1920 90 1920 180 1920 270C1920 360 1920 450 1920 540C1920 630 1920 720 1920 810C1920 900 1920 990 1920 1035L1920 1080Z" fill="#62a97e"></path></svg>